# xmcd
#
# Track frame offsets:
#	150
#	15721
#	27658
#	42185
#	63011
#	84463
#	103018
#	123014
#
# Disc length: 1857 seconds
#
# Revision: 1
# Processed by: cddbd v1.5.2PL0 Copyright (c) Steve Scherf et al.
# Submitted via: audiograbber 1.83.01
#
DISCID=5a073f08
DTITLE=junger chor overbach - Reif für die Insel
DYEAR=2002
DGENRE=pop
TTITLE0=Don't stop me now
TTITLE1=Something stupid
TTITLE2=Tuxedo Junction
TTITLE3=Aquarius
TTITLE4=The greatest love of all
TTITLE5=Africa
TTITLE6=My Immortial
TTITLE7=Mexico
EXTD=
EXTT0=
EXTT1=
EXTT2=
EXTT3=
EXTT4=
EXTT5=
EXTT6=
EXTT7=
PLAYORDER=
